<?xml version="1.0" encoding="UTF-8" standalone="no"?>
<!DOCTYPE svg PUBLIC "-//W3C//DTD SVG 1.1//EN" "http://www.w3.org/Graphics/SVG/1.1/DTD/svg11.dtd">
<svg width="100%" height="100%" viewBox="0 0 1898 152" version="1.1" xmlns="http://www.w3.org/2000/svg" xmlns:xlink="http://www.w3.org/1999/xlink" xml:space="preserve" xmlns:serif="http://www.serif.com/" style="fill-rule:evenodd;clip-rule:evenodd;stroke-linejoin:round;stroke-miterlimit:2;">
    <g id="Artboard1" transform="matrix(1.42264,0,0,0.23417,978.301,-93.6221)">
        <rect x="-687.667" y="399.805" width="1333.6" height="646.259" style="fill:none;"/>
        <clipPath id="_clip1">
            <rect x="-687.667" y="399.805" width="1333.6" height="646.259"/>
        </clipPath>
        <g clip-path="url(#_clip1)">
            <g transform="matrix(0.70292,0,0,4.27041,-767.578,-157.293)">
                <path d="M114.105,281.322L114.105,177.798C114.105,164.963 117.997,154.478 125.783,146.342C133.568,138.206 143.668,134.138 156.082,134.138C170.811,134.138 182.138,140.906 190.064,154.443C194.903,147.148 200.094,141.941 205.634,138.819C211.175,135.698 218.014,134.138 226.15,134.138C239.055,134.138 248.944,138.206 255.818,146.342C262.691,154.478 266.128,166.191 266.128,181.481L266.128,281.322L223.414,281.322L223.414,187.898C223.414,183.269 223.046,180.201 222.31,178.693C221.573,177.185 220.083,176.431 217.838,176.431C213.63,176.431 211.526,180.008 211.526,187.162L211.526,281.322L168.812,281.322L168.812,187.898C168.812,183.339 168.426,180.288 167.655,178.745C166.883,177.202 165.375,176.431 163.131,176.431C158.923,176.431 156.819,180.253 156.819,187.898L156.819,281.322L114.105,281.322Z" style="fill:white;fill-rule:nonzero;"/>
                <path d="M328.411,176.431L328.411,281.322L289.063,281.322L289.063,176.431L328.411,176.431ZM308.842,129.614C314.173,129.614 318.784,131.49 322.677,135.242C326.569,138.995 328.516,143.431 328.516,148.551C328.516,154.022 326.675,158.511 322.992,162.017C319.31,165.524 314.593,167.278 308.842,167.278C303.091,167.278 298.374,165.524 294.692,162.017C291.01,158.511 289.168,154.022 289.168,148.551C289.168,143.431 291.115,138.995 295.007,135.242C298.9,131.49 303.512,129.614 308.842,129.614Z" style="fill:white;fill-rule:nonzero;"/>
                <path d="M415.942,233.032L454.974,231.559C453.852,246.709 448.206,259.158 438.036,268.907C427.866,278.657 415.487,283.531 400.898,283.531C385.468,283.531 372.439,278.166 361.814,267.434C351.188,256.703 345.875,243.553 345.875,227.982C345.875,213.183 351.24,200.523 361.971,190.002C372.702,179.482 385.573,174.221 400.582,174.221C413.698,174.221 425.271,178.36 435.3,186.636C445.33,194.912 451.572,205.468 454.027,218.303L414.154,219.776C410.717,215.287 406.369,213.043 401.108,213.043C396.619,213.043 392.937,214.516 390.062,217.461C387.186,220.407 385.748,224.124 385.748,228.613C385.748,233.172 387.274,236.995 390.325,240.081C393.376,243.167 397.181,244.71 401.74,244.71C408.403,244.71 413.137,240.817 415.942,233.032Z" style="fill:white;fill-rule:nonzero;"/>
                <path d="M511.47,137.715L511.47,181.586C518.133,176.746 524.796,174.327 531.459,174.327C541.559,174.327 549.572,177.974 555.499,185.268C561.426,192.562 564.389,202.417 564.389,214.831L564.389,281.322L525.042,281.322L525.042,225.878C525.042,221.389 524.568,218.373 523.621,216.83C522.675,215.287 520.833,214.516 518.098,214.516C513.679,214.516 511.47,217.777 511.47,224.3L511.47,281.322L472.123,281.322L472.123,137.715L511.47,137.715Z" style="fill:white;fill-rule:nonzero;"/>
                <path d="M651.638,230.548L651.71,281.322C648.484,281.883 639.436,283.531 636.771,283.531C620.99,283.531 607.839,278.341 597.319,267.961C586.798,257.58 581.538,244.57 581.538,228.929C581.538,213.709 586.851,200.804 597.476,190.213C608.102,179.622 621.025,174.327 636.245,174.327C653.218,174.327 666.597,179.289 676.381,189.213C686.166,199.138 691.058,212.692 691.058,229.876L691.058,281.322L651.71,281.322C651.71,281.322 651.64,244.17 651.638,230.548C651.637,226.622 650.36,222.757 647.66,219.46C644.96,216.164 641.33,214.516 636.771,214.516C632.633,214.516 629.056,216.024 626.04,219.039C623.024,222.055 621.516,225.632 621.516,229.771C621.516,234.119 622.884,237.696 625.619,240.502C628.355,243.307 631.832,244.931 636.035,244.71C640.788,244.46 644.198,243.339 646.736,240.912C649.854,237.931 650.681,235.318 651.638,230.548Z" style="fill:white;fill-rule:nonzero;"/>
                <path d="M817.095,235.241L740.111,235.241C739.2,232.225 739.52,229.455 739.52,226.93C739.52,223.423 740.72,219.986 741.983,216.62L777.958,216.62C776.556,208.834 772.172,204.942 764.808,204.942C759.898,204.942 755.9,207.028 752.814,211.202C749.728,215.375 748.185,220.723 748.185,227.246C748.185,234.049 749.675,239.555 752.656,243.763C755.637,247.971 759.547,250.075 764.387,250.075C768.314,250.075 772.102,248.112 775.749,244.184L798.158,271.117C787.708,279.323 776.1,283.426 763.335,283.426C747.764,283.426 734.683,278.201 724.093,267.75C713.502,257.3 708.206,244.359 708.206,228.929C708.206,213.569 713.554,200.593 724.25,190.002C734.946,179.412 748.08,174.116 763.65,174.116C778.87,174.116 791.653,179.289 801.998,189.634C812.343,199.98 817.516,212.727 817.516,227.877C817.516,229.42 817.376,231.875 817.095,235.241Z" style="fill:white;fill-rule:nonzero;"/>
                <rect x="833.402" y="137.715" width="39.347" height="143.607" style="fill:white;fill-rule:nonzero;"/>
                <path d="M949.656,281.322L949.656,177.798C949.656,164.963 953.548,154.478 961.334,146.342C969.119,138.206 979.219,134.138 991.633,134.138C1006.36,134.138 1017.69,140.906 1025.62,154.443C1030.45,147.148 1035.64,141.941 1041.18,138.819C1046.73,135.698 1053.57,134.138 1061.7,134.138C1074.61,134.138 1084.5,138.206 1091.37,146.342C1098.24,154.478 1101.68,166.191 1101.68,181.481L1101.68,281.322L1058.96,281.322L1058.96,187.898C1058.96,183.269 1058.6,180.201 1057.86,178.693C1057.12,177.185 1055.63,176.431 1053.39,176.431C1049.18,176.431 1047.08,180.008 1047.08,187.162L1047.08,281.322L1004.36,281.322L1004.36,187.898C1004.36,183.339 1003.98,180.288 1003.21,178.745C1002.43,177.202 1000.93,176.431 998.682,176.431C994.474,176.431 992.369,180.253 992.369,187.898L992.369,281.322L949.656,281.322Z" style="fill:white;fill-rule:nonzero;"/>
                <path d="M1174.38,174.221C1189.25,174.221 1201.99,179.569 1212.62,190.265C1223.25,200.961 1228.56,213.779 1228.56,228.718C1228.56,243.868 1223.17,256.774 1212.41,267.434C1201.64,278.095 1188.65,283.426 1173.43,283.426C1158.21,283.426 1145.2,278.078 1134.4,267.382C1123.6,256.686 1118.2,243.798 1118.2,228.718C1118.2,213.358 1123.6,200.435 1134.4,189.95C1145.2,179.464 1158.53,174.221 1174.38,174.221ZM1173.33,213.043C1169.12,213.043 1165.54,214.568 1162.59,217.619C1159.65,220.67 1158.17,224.405 1158.17,228.824C1158.17,233.172 1159.67,236.889 1162.65,239.976C1165.63,243.062 1169.19,244.605 1173.33,244.605C1177.53,244.605 1181.13,243.062 1184.11,239.976C1187.09,236.889 1188.58,233.172 1188.58,228.824C1188.58,224.405 1187.11,220.67 1184.16,217.619C1181.21,214.568 1177.6,213.043 1173.33,213.043Z" style="fill:white;fill-rule:nonzero;"/>
                <path d="M1338.5,281.322L1299.15,281.322L1299.15,222.09C1299.15,216.059 1296.66,213.043 1291.68,213.043C1286.77,213.043 1284.32,216.059 1284.32,222.09L1284.32,281.322L1244.97,281.322L1244.97,222.827C1244.97,209.15 1249.49,197.63 1258.54,188.266C1267.59,178.903 1278.67,174.221 1291.79,174.221C1306.8,174.221 1318.83,179.657 1327.87,190.528C1334.96,199.015 1338.5,210.833 1338.5,225.983L1338.5,281.322Z" style="fill:white;fill-rule:nonzero;"/>
                <path d="M1464.54,235.241L1383.03,235.241C1382.12,232.225 1384.19,229.455 1384.19,226.93C1384.19,223.423 1385.96,219.986 1387.22,216.62L1425.4,216.62C1424,208.834 1419.61,204.942 1412.25,204.942C1407.34,204.942 1403.34,207.028 1400.26,211.202C1397.17,215.375 1395.63,220.723 1395.63,227.246C1395.63,234.049 1397.12,239.555 1400.1,243.763C1403.08,247.971 1406.99,250.075 1411.83,250.075C1415.76,250.075 1419.54,248.112 1423.19,244.184L1445.6,271.117C1435.15,279.323 1423.54,283.426 1410.78,283.426C1395.21,283.426 1382.12,278.201 1371.53,267.75C1360.94,257.3 1355.65,244.359 1355.65,228.929C1355.65,213.569 1361,200.593 1371.69,190.002C1382.39,179.412 1395.52,174.116 1411.09,174.116C1426.31,174.116 1439.09,179.289 1449.44,189.634C1459.79,199.98 1464.96,212.727 1464.96,227.877C1464.96,229.42 1464.82,231.875 1464.54,235.241Z" style="fill:white;fill-rule:nonzero;"/>
                <path d="M1537.76,199.681L1537.76,240.922L1520.19,240.922L1520.19,281.322L1480.84,281.322L1480.84,192.212C1480.84,182.182 1482.56,173.625 1486,166.541C1490.35,157.494 1496.96,150.112 1505.83,144.395C1514.7,138.679 1523.94,135.821 1533.55,135.821L1537.76,135.926L1537.76,177.167C1536.85,177.097 1536.18,177.062 1535.76,177.062C1530.78,177.062 1526.94,178.71 1524.24,182.007C1521.54,185.303 1520.19,190.002 1520.19,196.104L1520.19,199.681L1537.76,199.681Z" style="fill:white;fill-rule:nonzero;"/>
                <path d="M1658.12,235.241L1582.6,235.241C1581.69,232.225 1583.76,229.455 1583.76,226.93C1583.76,223.423 1587.02,219.986 1588.28,216.62L1618.98,216.62C1617.58,208.834 1613.19,204.942 1605.83,204.942C1600.92,204.942 1596.92,207.028 1593.84,211.202C1590.75,215.375 1589.21,220.723 1589.21,227.246C1589.21,234.049 1590.7,239.555 1593.68,243.763C1596.66,247.971 1600.57,250.075 1605.41,250.075C1609.34,250.075 1613.12,248.112 1616.77,244.184L1639.18,271.117C1628.73,279.323 1617.12,283.426 1604.36,283.426C1588.79,283.426 1575.7,278.201 1565.11,267.75C1554.52,257.3 1549.23,244.359 1549.23,228.929C1549.23,213.569 1554.58,200.593 1565.27,190.002C1575.97,179.412 1589.1,174.116 1604.67,174.116C1619.89,174.116 1632.67,179.289 1643.02,189.634C1653.37,199.98 1658.54,212.727 1658.54,227.877C1658.54,229.42 1658.4,231.875 1658.12,235.241Z" style="fill:white;fill-rule:nonzero;"/>
                <rect x="1674.42" y="137.715" width="39.347" height="143.607" style="fill:white;fill-rule:nonzero;"/>
                <path d="M1801.41,137.715L1840.76,137.715L1840.76,225.141C1840.76,241.203 1836.55,254.284 1828.13,264.383C1823.29,270.205 1817.14,274.834 1809.67,278.271C1802.2,281.708 1794.54,283.426 1786.68,283.426C1771.04,283.426 1757.85,278.166 1747.12,267.645C1736.39,257.124 1731.03,244.219 1731.03,228.929C1731.03,214.13 1736.36,201.33 1747.02,190.528C1757.68,179.727 1770.3,174.327 1784.89,174.327C1795.16,174.327 1796.71,176.089 1801.41,176.51L1801.41,218.626C1798.18,216.101 1789.8,214.516 1785.73,214.516C1781.66,214.516 1778.17,216.006 1775.27,218.987C1772.35,221.968 1770.9,225.562 1770.9,229.771C1770.9,233.838 1772.41,237.328 1775.42,240.239C1778.44,243.149 1782.05,244.605 1786.26,244.605C1796.36,244.605 1801.41,237.626 1801.41,223.669L1801.41,137.715Z" style="fill:white;fill-rule:nonzero;"/>
                <path d="M1896.52,137.715L1896.52,177.904L1914.19,177.904L1914.19,219.46L1896.52,219.46C1896.52,227.807 1897.83,233.558 1900.46,236.714C1903.09,239.87 1907.91,241.448 1914.93,241.448L1914.93,282.795C1912.89,282.865 1911.38,282.9 1910.4,282.9C1901.5,282.9 1893.1,280.831 1885.2,276.693C1877.32,272.555 1870.99,266.944 1866.22,259.86C1860.18,250.812 1857.17,238.818 1857.17,223.879L1857.17,137.715L1896.52,137.715Z" style="fill:white;fill-rule:nonzero;"/>
            </g>
        </g>
    </g>
</svg>
